<svg version="1.1" id="Layer_1" xmlns="http://www.w3.org/2000/svg" xmlns:xlink="http://www.w3.org/1999/xlink" x="0px" y="0px"
	 width="100%" viewBox="0 0 496 496" enable-background="new 0 0 496 496" xml:space="preserve">
<path fill="#000000" opacity="1.000000" stroke="none" 
	d="
M304.455322,140.466980 
	C346.712433,170.885147 348.161591,235.979218 307.587311,267.922577 
	C280.199463,289.484558 242.337265,285.024048 218.567795,257.435272 
	C192.348145,227.002625 194.119583,177.358047 222.441483,148.875214 
	C244.957321,126.231430 277.385986,122.813309 304.455322,140.466980 
M290.706116,155.731873 
	C289.199158,150.242889 287.086609,145.013107 283.874756,140.287170 
	C275.986359,128.680130 261.543030,128.530396 253.461609,139.947098 
	C251.237610,143.088943 249.502762,146.474533 248.183151,150.097961 
	C243.343277,163.387482 241.990204,177.295624 241.451111,191.234283 
	C240.911514,205.185257 240.804306,219.190552 242.381409,233.105972 
	C243.731079,245.014511 245.468567,256.908966 251.500549,267.557495 
	C255.177216,274.048065 260.156982,278.892029 268.393677,278.931915 
	C276.604370,278.971710 281.615784,274.276642 285.437897,267.800995 
	C288.506073,262.602631 290.295197,256.882141 291.682861,251.036133 
	C296.380707,231.245193 296.019287,211.100616 295.576385,190.993805 
	C295.320312,179.369965 294.063171,167.793823 290.706116,155.731873 
z"/>
<path fill="#000000" opacity="1.000000" stroke="none" 
	d="
M156.697388,208.999939 
	C156.691574,189.168655 156.406845,169.831741 156.798752,150.508530 
	C156.993622,140.900513 155.397110,133.131516 144.016800,130.906860 
	C147.664719,128.510223 202.704285,128.059677 208.002594,129.951401 
	C207.969269,130.253510 207.997406,130.805389 207.892807,130.831818 
	C197.895248,133.357376 195.750320,140.299622 195.835510,149.756989 
	C196.165771,186.416336 196.041458,223.081085 195.867493,259.742798 
	C195.822662,269.186859 196.148270,277.925873 208.985687,279.386230 
	C208.676056,279.811646 208.366440,280.237061 208.056808,280.662476 
	C186.983948,280.662476 165.911102,280.662476 144.764709,280.662476 
	C144.918823,280.155640 144.927429,279.672150 145.109253,279.594574 
	C155.411667,275.198639 156.689972,273.270569 156.692398,261.994141 
	C156.696167,244.496078 156.696121,226.998001 156.697388,208.999939 
z"/>
<path fill="#000000" opacity="1.000000" stroke="none" 
	d="
M330.794495,274.676758 
	C328.749359,268.530731 329.005157,263.098999 333.582977,258.609100 
	C337.470337,254.796402 342.203583,253.733490 347.397308,255.309586 
	C353.540802,257.173889 357.324066,262.435486 357.302948,268.786652 
	C357.283142,274.745270 353.347168,279.985016 347.508606,281.825256 
	C340.939636,283.895721 335.372101,281.617981 330.794495,274.676758 
z"/>
</svg>